<?xml version="1.0" encoding="utf-8"?>
<!-- Generator: Adobe Illustrator 24.0.1, SVG Export Plug-In . SVG Version: 6.00 Build 0)  -->
<svg version="1.1" id="Layer_1" xmlns="http://www.w3.org/2000/svg" xmlns:xlink="http://www.w3.org/1999/xlink" x="0px" y="0px"
	 viewBox="0 0 505.69 730" style="enable-background:new 0 0 505.69 730;" xml:space="preserve"
	 width="54px" height="54px" 
	 >
<style type="text/css">
	.st0{fill:#960E1E;}
	.st1{fill:#C72027;}
</style>
<g>
	<path class="st0" d="M323.45,680.78c-1.5-10.84-5.43-21.27-10.05-30.8c-44.79,8.49-92.62-7.92-122.35-46.5
		c-8.96-11.63-25.73-13.62-37.16-4.41l-11.44,9.22c-11.09,8.93-13.01,25.09-4.32,36.38l6.12,7.95
		c34.01,44.14,82.93,70.01,134.22,76.03C278.47,728.64,327.93,713.18,323.45,680.78"/>
	<path class="st0" d="M457.4,573.77c15.55-4.71,32.92-15.01,47.3-26.91c4.85-48.64-8.12-99.17-40.31-140.94L346.44,252.86
		c-14.92-19.36-42.84-22.67-61.88-7.34c-18.47,14.87-21.66,41.78-7.18,60.56l111.63,144.86c25.4,32.96,31.78,74.56,20.87,111.64
		C424.46,572.12,439.73,579.12,457.4,573.77"/>
	<path class="st1" d="M457.4,573.77c-17.67,5.35-32.95-1.64-47.52-11.19c-12.26-8.04-24.03-17.88-36.3-23.72
		c-26.85-12.77-50.35,1.77-63.67,14.05c-20.31,18.74-20.43,40.56-18.61,54.85c1.01,7.93,12.91,23.3,22.09,42.23
		c4.62,9.53,8.55,19.95,10.05,30.8c4.48,32.39-44.98,47.85-44.99,47.86c49.69,5.83,101.61-6.98,144.38-39.93l5.46-4.21
		c45.12-34.77,71.16-85.11,76.4-137.65C490.32,558.76,472.96,569.06,457.4,573.77"/>
	<path class="st0" d="M182.24,49.22c1.5,10.84,5.43,21.27,10.05,30.8c44.79-8.49,92.62,7.92,122.35,46.5
		c8.96,11.63,25.73,13.62,37.17,4.41l11.44-9.22c11.09-8.93,13.01-25.09,4.32-36.38l-6.12-7.95
		C327.43,33.25,278.51,7.38,227.22,1.36C227.22,1.36,177.76,16.82,182.24,49.22"/>
	<path class="st0" d="M48.28,156.23c-15.55,4.71-32.92,15.01-47.3,26.92c-4.86,48.64,8.12,99.17,40.31,140.94l117.94,153.05
		c14.92,19.36,42.84,22.67,61.88,7.34c18.47-14.87,21.66-41.78,7.18-60.56L116.68,279.07c-25.4-32.96-31.78-74.56-20.87-111.64
		C81.23,157.88,65.96,150.88,48.28,156.23"/>
	<path class="st1" d="M48.28,156.23c17.67-5.35,32.95,1.65,47.52,11.2c12.26,8.04,24.03,17.88,36.3,23.72
		c26.85,12.77,50.35-1.77,63.67-14.05c20.3-18.74,20.42-40.56,18.61-54.85c-1.01-7.93-12.91-23.3-22.09-42.23
		c-4.62-9.53-8.55-19.95-10.05-30.8c-4.48-32.39,44.98-47.85,44.99-47.85C177.53-4.47,125.61,8.34,82.85,41.3l-5.45,4.21
		C32.27,80.27,6.23,130.61,0.99,183.15C15.37,171.24,32.73,160.94,48.28,156.23"/>
</g>
</svg>
