<?xml version="1.0" encoding="UTF-8"?>
<svg width="166px" height="76px" viewBox="0 0 166 76" version="1.1" xmlns="http://www.w3.org/2000/svg" xmlns:xlink="http://www.w3.org/1999/xlink">
    <title>A74111DD-BF2E-4E48-BEDD-9361DAE7F9C4</title>
    <g id="The-Challange" stroke="none" stroke-width="1" fill="none" fill-rule="evenodd">
        <g id="Login-Fb&amp;google" transform="translate(-105.000000, -269.000000)" fill="#FFFFFF" fill-rule="nonzero" stroke="#FFFFFF">
            <g id="logo/type/white" transform="translate(106.000000, 270.000000)">
                <g id="type-logo">
                    <path d="M45.7944412,37.0422857 C46.0050872,37.4651429 45.8786996,37.8034286 45.4152784,38.0571429 C43.0981723,39.072 40.9495831,40.1291429 38.9273815,41.1862857 C36.9051798,42.2434286 34.9672366,43.3005714 33.155681,44.3154286 C34.419557,45.4571429 35.051495,46.8948571 35.0936242,48.5017143 C35.3042702,51.1234286 34.630203,53.7451429 33.1978102,56.4514286 C31.7232881,59.1577143 29.5746989,61.7794286 26.667784,64.3588571 C24.0979028,66.5154286 21.2752464,68.4182857 18.1576855,70.0251429 C15.0401247,71.632 11.9225638,72.7737143 8.84713215,73.4502857 C8.21519414,73.6617143 7.58325613,73.7462857 6.90918892,73.7462857 C5.8138297,73.7462857 5.01337488,73.5348571 4.54995368,73.0697143 C4.08653247,72.6045714 3.83375726,72.1817143 3.70736966,71.8011429 C3.15969005,70.3634286 3.74949886,68.3337143 5.35040849,65.712 C6.1508633,64.4011429 7.20409332,63.048 8.42584014,61.568 C9.64758696,60.088 11.0799798,58.6502857 12.7230186,57.1702857 C14.5345742,55.4788571 16.5567759,53.7874286 18.7474943,52.096 C20.9382128,50.4045714 23.297448,48.7131429 25.7830708,47.0217143 C26.5835256,46.5565714 27.3839805,46.0491429 28.1844353,45.584 C28.9427609,45.1188571 29.7432157,44.6114286 30.5857997,44.1462857 C29.1955361,43.3428571 27.5103681,42.6662857 25.4881664,42.2011429 C23.508094,41.736 21.401634,41.2708571 19.1687863,40.8057143 C17.1044555,40.3828571 15.0401247,39.9177143 12.9757938,39.4102857 C10.911463,38.9451429 9.01564895,38.2685714 7.33048092,37.4651429 C3.32820686,35.6891429 1.05323002,33.1097143 0.463421208,29.7268571 C0.252775204,28.6274286 0.337033606,27.3165714 0.674067211,25.8365714 C1.01110082,24.3565714 1.60090963,22.792 2.40136444,21.1851429 C4.50782448,17.0834286 7.83603133,13.2777143 12.3438558,9.72571429 C14.6188326,7.992 16.8938095,6.42742857 19.1687863,5.032 C21.4858924,3.63657143 23.6766108,2.53714286 25.8252,1.69142857 C30.6279289,-0.253714286 34.0825234,-0.422857143 36.1468542,1.09942857 C38.4639602,2.79085714 38.632477,6.34285714 36.6524046,11.7554286 C36.4417586,12.2205714 36.1468542,12.3897143 35.7255622,12.1782857 C35.262141,11.9668571 35.0936242,11.6708571 35.3042702,11.248 C35.5991746,10.4445714 35.8519498,9.55657143 36.104725,8.66857143 C36.3575002,7.78057143 36.4838878,6.93485714 36.5681462,6.08914286 C36.6524046,5.28571429 36.5681462,4.52457143 36.3996294,3.848 C36.1889834,3.17142857 35.8519498,2.62171429 35.3042702,2.24114286 C34.5038154,1.64914286 33.3241978,1.43771429 31.8075465,1.60685714 C30.2908953,1.73371429 28.4793397,2.24114286 26.3728796,3.04457143 C24.350678,3.848 22.244218,4.94742857 19.9692411,6.25828571 C17.6942643,7.61142857 15.4614167,9.176 13.2706982,10.9097143 C11.122109,12.6011429 9.22629495,14.3771429 7.62538533,16.1954286 C6.0244757,18.0137143 4.71847048,19.9165714 3.74949886,21.8617143 C3.03330245,23.2994286 2.48562284,24.6948571 2.14858924,26.048 C1.81155563,27.4011429 1.72729723,28.5428571 1.93794323,29.5154286 C2.23284764,31.1222857 2.90691485,32.4331429 4.00227407,33.5325714 C5.09763329,34.632 6.44576771,35.52 8.08880654,36.2388571 C9.73184536,36.9577143 11.543401,37.5497143 13.4813442,38.0148571 C15.4614167,38.48 17.4414891,38.9028571 19.4636907,39.368 C21.4437632,39.7485714 23.297448,40.1714286 25.1090036,40.552 C26.8784301,40.9748571 28.5214689,41.5245714 29.9538617,42.2011429 C30.7543165,42.5817143 31.4283837,42.9622857 31.9760633,43.3428571 C33.998265,42.1165714 36.0625958,40.9748571 38.211185,39.9177143 C40.3597743,38.8182857 42.5504927,37.7611429 44.8254696,36.704 C45.2046324,36.4925714 45.541666,36.6194286 45.7944412,37.0422857 Z M33.6612314,48.544 C33.6191022,47.1485714 33.0292934,45.9645714 31.8496757,44.992 C27.5103681,47.5714286 23.8872568,49.9394286 20.9382128,52.1805714 C17.9891687,54.4217143 15.5456751,56.4091429 13.6919902,58.1428571 C10.279525,61.3142857 7.92028973,64.0628571 6.57215531,66.3885714 C5.26615009,68.7142857 4.76059968,70.3634286 5.09763329,71.2937143 C5.30827929,71.928 5.7717005,72.224 6.53002611,72.1817143 C7.28835172,72.1394286 7.96241893,72.0971429 8.55222774,72.0125714 C11.5012718,71.336 14.4503158,70.2365714 17.4836183,68.672 C20.5169207,67.1074286 23.2553188,65.2891429 25.6988124,63.0902857 C28.4372105,60.7222857 30.5015413,58.312 31.8496757,55.8171429 C33.1978102,53.4068571 33.8297482,50.9965714 33.6612314,48.544 Z" id="Shape"></path>
                    <path d="M61.087341,36.9577143 C61.4665038,37.2114286 61.5507622,37.5497143 61.297987,37.9725714 C57.4642298,43.7234286 52.4508549,46.5988571 46.2999916,46.5988571 C44.909728,46.5988571 43.8986271,46.1337143 43.2666891,45.2034286 C42.2134591,43.7657143 42.1292007,41.5668571 42.9717847,38.6914286 C43.5194643,36.9154286 44.2356607,35.3931429 45.2046324,34.1245714 C46.173604,32.856 47.2689632,32.0525714 48.5328392,31.672 C49.7967152,31.2914286 50.7656869,31.376 51.4818833,31.968 C52.5772425,32.7714286 52.9564053,33.7862857 52.5772425,35.0125714 C52.3665965,35.4777143 52.0295629,35.9851429 51.5661417,36.408 C51.1027205,36.8731429 50.5550408,37.2537143 49.9231028,37.5497143 C49.333294,37.8457143 48.6592268,38.0994286 47.9851596,38.3108571 C47.2689632,38.5222857 46.594896,38.5645714 45.9208288,38.5222857 C45.4574076,38.4377143 45.2046324,38.1417143 45.2046324,37.7188571 C45.2888908,37.1691429 45.5837952,36.9577143 46.0050872,37.0845714 C46.5527668,37.1268571 47.1004464,37.0845714 47.648126,36.9154286 C48.2379348,36.7462857 48.7434852,36.5348571 49.2490356,36.2811429 C49.7124568,36.0274286 50.1337488,35.7314286 50.4707824,35.3931429 C50.8078161,35.0548571 51.0605913,34.7588571 51.1869789,34.4628571 C51.2712373,34.2514286 51.3133665,34.04 51.2712373,33.8285714 C51.2291081,33.5748571 51.0184621,33.3634286 50.6392993,33.1097143 C50.3022656,32.8137143 49.754586,32.8137143 48.9962604,33.0251429 C48.7856144,33.0674286 48.5328392,33.1942857 48.1536764,33.4057143 C47.7745136,33.6171429 47.3953508,33.9554286 46.9319296,34.4205714 C46.4685084,34.8857143 46.0050872,35.4777143 45.541666,36.2388571 C45.0782448,37 44.699082,37.9302857 44.3620483,39.1142857 C43.6458519,41.4822857 43.6458519,43.216 44.4463067,44.3154286 C44.8254696,44.8651429 45.4574076,45.1188571 46.3421208,45.1188571 C51.9874337,45.1188571 56.5795166,42.4548571 60.1183694,37.1691429 C60.4132738,36.7885714 60.7503074,36.7462857 61.087341,36.9577143 Z" id="Path"></path>
                    <path d="M78.4024425,36.704 C78.8658637,36.8308571 79.0343805,37.1268571 78.9079929,37.592 C78.9079929,37.6765714 78.6973469,38.3108571 78.2760549,39.4948571 C77.8547629,40.6788571 77.2649541,41.9897143 76.5066285,43.4274286 C74.4001684,47.4445714 72.1251916,49.432 69.6395688,49.432 L69.5553104,49.432 C67.6594963,49.432 65.9743283,48.544 64.4155479,46.768 L61.3822454,55.5211429 C61.2558578,55.8171429 61.0030826,55.944 60.666049,55.944 L60.455403,55.944 C59.9919818,55.7325714 59.823465,55.4365714 60.034111,55.0137143 L63.4465763,45.288 C62.351217,43.5965714 61.4243746,41.3977143 60.7081782,38.6068571 C60.3290154,37.296 60.034111,36.0274286 59.823465,34.8434286 C59.612819,33.6171429 59.4443022,32.56 59.2757854,31.5874286 C59.1493978,30.6148571 59.0230102,29.8537143 58.980881,29.2194286 C58.9387518,28.6274286 58.8966226,28.2891429 58.8966226,28.2468571 C58.8123642,27.824 59.0230102,27.528 59.5285606,27.4434286 C59.9498526,27.4434286 60.244757,27.6971429 60.3290154,28.1622857 C60.3711446,29.1771429 60.4975322,30.2342857 60.7081782,31.3337143 C60.8345658,32.3062857 61.0030826,33.3634286 61.2137286,34.5474286 C61.4243746,35.7314286 61.6771498,36.9577143 62.0984418,38.184 C62.351217,39.072 62.6461215,39.96 62.9831551,40.848 C63.3201887,41.7782857 63.6993515,42.624 64.1206435,43.4697143 L70.9877032,23.9337143 C71.1983492,23.4685714 71.4932536,23.2994286 71.9145456,23.5108571 C72.3358376,23.7222857 72.5043544,24.0182857 72.3358376,24.4411429 L65.0474859,45.0765714 C65.6794239,45.88 66.3534911,46.5565714 67.1118167,47.1062857 C67.8701423,47.656 68.7127264,47.9097143 69.681698,47.9097143 C70.2715068,47.9097143 70.8191864,47.7405714 71.366866,47.4022857 C71.9145456,47.064 72.420096,46.6411429 72.8835172,46.1337143 C73.3469384,45.6262857 73.7682304,45.0765714 74.1895224,44.4422857 C74.6108145,43.808 74.9899773,43.216 75.3270109,42.624 C75.7061737,41.9474286 76.0432073,41.2708571 76.2959825,40.6365714 C76.5487577,40.0022857 76.8015329,39.4102857 76.9700497,38.8605714 C77.1806957,38.2685714 77.3492125,37.7188571 77.5598585,37.1268571 C77.6441169,36.6617143 77.9390213,36.4925714 78.4024425,36.704 Z" id="Path"></path>
                    <path d="M95.085606,36.9577143 C95.4647688,37.2114286 95.5490272,37.5497143 95.296252,37.9725714 C91.4624947,43.7234286 86.4491199,46.5988571 80.2982565,46.5988571 C78.9079929,46.5988571 77.8968921,46.1337143 77.2649541,45.2034286 C76.2117241,43.7657143 76.1274657,41.5668571 76.9700497,38.6914286 C77.5177293,36.9154286 78.2339257,35.3931429 79.2028973,34.1245714 C80.1718689,32.856 81.2672282,32.0525714 82.5311042,31.672 C83.7949802,31.2914286 84.7639518,31.376 85.4801482,31.968 C86.5755075,32.7714286 86.9546703,33.7862857 86.5755075,35.0125714 C86.3648615,35.4777143 86.0278278,35.9851429 85.5644066,36.408 C85.1009854,36.8731429 84.5533058,37.2537143 83.9213678,37.5497143 C83.331559,37.8457143 82.6574918,38.0994286 81.9834246,38.3108571 C81.2672282,38.5222857 80.593161,38.5645714 79.9190937,38.5222857 C79.4556725,38.4377143 79.2028973,38.1417143 79.2028973,37.7188571 C79.2871557,37.1691429 79.5820601,36.9577143 80.0033521,37.0845714 C80.5510318,37.1268571 81.0987114,37.0845714 81.646391,36.9154286 C82.2361998,36.7462857 82.7417502,36.5348571 83.2473006,36.2811429 C83.7107218,36.0274286 84.1320138,35.7314286 84.4690474,35.3931429 C84.806081,35.0548571 85.0588562,34.7588571 85.1852438,34.4628571 C85.2695022,34.2514286 85.3116314,34.04 85.2695022,33.8285714 C85.227373,33.5748571 85.016727,33.3634286 84.6375642,33.1097143 C84.3005306,32.8137143 83.752851,32.8137143 82.9945254,33.0251429 C82.7838794,33.0674286 82.5311042,33.1942857 82.1519414,33.4057143 C81.7727786,33.6171429 81.3936158,33.9554286 80.9301946,34.4205714 C80.4667734,34.8857143 80.0033521,35.4777143 79.5399309,36.2388571 C79.0765097,37 78.6973469,37.9302857 78.3603133,39.1142857 C77.6441169,41.4822857 77.6441169,43.216 78.4445717,44.3154286 C78.8237345,44.8651429 79.4556725,45.1188571 80.3403857,45.1188571 C85.9856986,45.1188571 90.5777815,42.4548571 94.1166344,37.1691429 C94.4115388,36.7885714 94.7485724,36.7462857 95.085606,36.9577143 Z" id="Path"></path>
                    <path d="M125.96631,36.8308571 C126.303344,37.1691429 126.345473,37.5074286 126.092698,37.8457143 C124.491788,39.8331429 122.975137,41.3977143 121.458486,42.5394286 C119.773318,43.7657143 118.214537,44.2731429 116.824274,44.1462857 C116.360852,44.0617143 115.813173,43.808 115.181235,43.4697143 C114.591426,43.0891429 114.043746,42.4548571 113.538196,41.4822857 C113.201162,40.7634286 112.906258,40.0022857 112.611353,39.1565714 C112.316449,38.3531429 112.021545,37.5074286 111.72664,36.704 C111.347477,35.6468571 110.968315,34.632 110.589152,33.7017143 C110.209989,32.7714286 109.830826,31.8834286 109.451663,31.1222857 C108.651209,29.6845714 107.892883,28.9657143 107.218816,28.9657143 C106.839653,28.9657143 106.334103,29.2194286 105.744294,29.7268571 C105.154485,30.2342857 104.35403,31.3337143 103.385059,33.0251429 C102.668862,34.336 101.952666,35.7737143 101.236469,37.3382857 C100.520273,38.9028571 99.8883349,40.4251429 99.2563969,41.9474286 C97.9503916,44.9497143 96.98142,47.064 96.3073528,48.2902857 C95.6332856,49.5165714 94.9592184,50.1508571 94.2851512,50.1508571 C93.82173,50.1508571 93.400438,49.9394286 93.1476628,49.5165714 C92.5157248,48.7131429 92.347208,47.1062857 92.6421124,44.7382857 C92.9370168,41.6937143 93.8638592,37.4651429 95.4647688,32.0525714 C95.5490272,31.6297143 95.8439316,31.4605714 96.349482,31.5451429 C96.770774,31.672 96.9392908,31.968 96.8550324,32.4331429 C95.8439316,35.9005714 95.1277352,38.6914286 94.7064432,40.8057143 C94.2851512,42.92 94.0745052,44.5268571 93.9902468,45.6685714 C93.9059884,46.8102857 93.9481176,47.5714286 94.0745052,47.9942857 C94.2008928,48.4171429 94.2851512,48.6285714 94.3272804,48.6708571 C94.4115388,48.6285714 94.5800556,48.4594286 94.7907016,48.1634286 C95.0013476,47.8674286 95.296252,47.3177143 95.6754148,46.5142857 C96.0124484,45.8377143 96.3916112,45.0765714 96.770774,44.1885714 C97.1499368,43.3005714 97.5712288,42.4125714 97.9925208,41.44 C98.6244589,39.8754286 99.2985261,38.3531429 99.9725933,36.7885714 C100.68879,35.224 101.404986,33.744 102.163312,32.3908571 C103.974867,29.2194286 105.660035,27.6125714 107.218816,27.6125714 C107.892883,27.6125714 108.482692,27.8662857 109.030371,28.3314286 C109.578051,28.7965714 110.083601,29.4731429 110.547023,30.2765714 C111.010444,31.08 111.473865,32.0102857 111.895157,33.0674286 C112.316449,34.1245714 112.695612,35.1817143 113.074775,36.2811429 C113.664584,37.9302857 114.254392,39.4525714 114.88633,40.9325714 C115.476139,42.032 116.192336,42.6662857 117.03492,42.8354286 C118.003891,42.92 119.183509,42.4971429 120.573772,41.4822857 C121.964036,40.5097143 123.396429,39.0297143 124.91308,37.0845714 C125.250114,36.5771429 125.587147,36.5348571 125.96631,36.8308571 Z" id="Path"></path>
                    <path d="M143.407799,37.9725714 C143.618445,38.0571429 143.702704,38.2262857 143.786962,38.3954286 C143.829091,38.6068571 143.829091,38.776 143.702704,38.9028571 C142.017536,41.736 140.332368,44.2731429 138.60507,46.4297143 C136.877773,48.5862857 135.192605,50.4045714 133.507437,51.8 C130.937556,53.9565714 128.704708,55.056 126.808894,55.056 C126.556119,55.056 126.345473,55.056 126.176956,55.056 C125.96631,55.056 125.755664,55.0137143 125.545018,54.9291429 C125.207985,54.8445714 124.828822,54.6331429 124.449659,54.3794286 C124.070496,54.1257143 123.691333,53.7028571 123.3543,53.1954286 C123.017266,52.6457143 122.764491,51.9691429 122.553845,51.1234286 C122.343199,50.2777143 122.30107,49.2205714 122.343199,47.9097143 C122.427457,45.584 122.80662,43.3851429 123.480687,41.2285714 C124.112625,39.1142857 124.997338,37.1268571 126.134827,35.3085714 C127.145928,33.6594286 128.283416,32.3062857 129.505163,31.2068571 C130.72691,30.1074286 131.948657,29.4308571 133.170403,29.1348571 C135.276863,28.712 136.877773,29.4308571 137.931003,31.376 C138.183778,31.7988571 138.057391,32.1371429 137.636099,32.3908571 C137.172678,32.6022857 136.835644,32.4754286 136.709256,32.0948571 C135.99306,30.7417143 134.897701,30.2342857 133.465308,30.5725714 C132.496336,30.8262857 131.485235,31.4182857 130.389876,32.3908571 C129.294517,33.3634286 128.325545,34.5474286 127.398703,36.0274286 C126.345473,37.7188571 125.502889,39.5794286 124.91308,41.6514286 C124.323271,43.7234286 123.944108,45.7954286 123.85985,47.9097143 C123.733462,51.1657143 124.449659,53.0262857 126.008439,53.576 C126.808894,53.8297143 127.819995,53.7028571 128.957483,53.1954286 C130.094972,52.688 131.358848,51.8422857 132.622724,50.7005714 C134.223633,49.3474286 135.824543,47.6137143 137.509711,45.5417143 C139.15275,43.4274286 140.795789,41.0171429 142.438828,38.2685714 C142.649474,37.8034286 142.986507,37.7611429 143.407799,37.9725714 Z" id="Path"></path>
                    <path d="M160.596513,36.9577143 C160.975676,37.2114286 161.059934,37.5497143 160.807159,37.9725714 C156.973402,43.7234286 151.960027,46.5988571 145.809164,46.5988571 C144.4189,46.5988571 143.407799,46.1337143 142.775861,45.2034286 C141.722631,43.7657143 141.638373,41.5668571 142.480957,38.6914286 C143.028636,36.9154286 143.744833,35.3931429 144.713804,34.1245714 C145.682776,32.856 146.778135,32.0525714 148.042011,31.672 C149.305887,31.2914286 150.274859,31.376 150.991055,31.968 C152.086415,32.7714286 152.465577,33.7862857 152.086415,35.0125714 C151.875769,35.4777143 151.538735,35.9851429 151.075314,36.408 C150.611893,36.8731429 150.064213,37.2537143 149.432275,37.5497143 C148.842466,37.8457143 148.168399,38.0994286 147.494332,38.3108571 C146.778135,38.5222857 146.104068,38.5645714 145.430001,38.5222857 C144.96658,38.4377143 144.713804,38.1417143 144.713804,37.7188571 C144.798063,37.1691429 145.092967,36.9577143 145.514259,37.0845714 C146.061939,37.1268571 146.609618,37.0845714 147.157298,36.9154286 C147.747107,36.7462857 148.252657,36.5348571 148.758208,36.2811429 C149.221629,36.0274286 149.642921,35.7314286 149.979955,35.3931429 C150.316988,35.0548571 150.569763,34.7588571 150.696151,34.4628571 C150.780409,34.2514286 150.822539,34.04 150.780409,33.8285714 C150.73828,33.5748571 150.527634,33.3634286 150.148471,33.1097143 C149.811438,32.8137143 149.263758,32.8137143 148.505432,33.0251429 C148.294786,33.0674286 148.042011,33.1942857 147.662848,33.4057143 C147.283686,33.6171429 146.904523,33.9554286 146.441102,34.4205714 C145.97768,34.8857143 145.514259,35.4777143 145.050838,36.2388571 C144.587417,37 144.208254,37.9302857 143.87122,39.1142857 C143.155024,41.4822857 143.155024,43.216 143.955479,44.3154286 C144.334642,44.8651429 144.96658,45.1188571 145.851293,45.1188571 C151.496606,45.1188571 156.088689,42.4548571 159.627541,37.1691429 C159.922446,36.7885714 160.259479,36.7462857 160.596513,36.9577143 Z" id="Path"></path>
                    <path d="M163.987564,33.6195791 C163.953085,33.8565788 163.815169,34.0597214 163.642774,34.1951498 C163.470378,34.3305782 163.229025,34.3982925 162.987672,34.3305782 C162.746318,34.2967211 162.539444,34.1612927 162.401528,33.9920072 C162.263612,33.8227217 162.194654,33.585722 162.263612,33.3487223 C162.298091,33.1117226 162.436007,32.90858 162.608402,32.7731515 C162.780797,32.6377231 163.022151,32.5700089 163.263504,32.603866 C163.504857,32.6377231 163.711732,32.7731515 163.849648,32.9424371 C163.987564,33.1455797 164.022043,33.3825794 163.987564,33.6195791 Z" id="Path"></path>
                </g>
            </g>
        </g>
    </g>
</svg>